<mxfile host="65bd71144e">
    <diagram id="SWB2aOzDUIjxHBlC-R7F" name="Страница — 1">
        <mxGraphModel dx="900" dy="627" grid="1" gridSize="10" guides="1" tooltips="1" connect="1" arrows="1" fold="1" page="1" pageScale="1" pageWidth="850" pageHeight="1100" math="0" shadow="0">
            <root>
                <mxCell id="0"/>
                <mxCell id="1" parent="0"/>
                <mxCell id="2" value="" style="rounded=0;whiteSpace=wrap;html=1;fillColor=none;" vertex="1" parent="1">
                    <mxGeometry x="1254" y="610" width="180" height="760" as="geometry"/>
                </mxCell>
                <mxCell id="3" value="" style="rounded=0;whiteSpace=wrap;html=1;fillColor=none;labelBackgroundColor=none;strokeColor=#E07A5F;fontColor=#393C56;" vertex="1" parent="1">
                    <mxGeometry x="272" y="1050" width="408" height="114" as="geometry"/>
                </mxCell>
                <mxCell id="4" value="" style="rounded=0;whiteSpace=wrap;html=1;fillColor=none;labelBackgroundColor=none;strokeColor=#E07A5F;fontColor=#393C56;" vertex="1" parent="1">
                    <mxGeometry x="884" y="194" width="550" height="360" as="geometry"/>
                </mxCell>
                <mxCell id="5" value="" style="rounded=0;whiteSpace=wrap;html=1;fillColor=none;labelBackgroundColor=none;strokeColor=#E07A5F;fontColor=#393C56;" vertex="1" parent="1">
                    <mxGeometry x="134" y="194" width="730" height="360" as="geometry"/>
                </mxCell>
                <mxCell id="6" value="Users" style="swimlane;fontStyle=0;childLayout=stackLayout;horizontal=1;startSize=26;horizontalStack=0;resizeParent=1;resizeParentMax=0;resizeLast=0;collapsible=1;marginBottom=0;align=center;fontSize=14;rounded=0;labelBackgroundColor=none;fillColor=#F2CC8F;strokeColor=#E07A5F;fontColor=#393C56;" vertex="1" parent="1">
                    <mxGeometry x="794" y="54" width="150" height="106" as="geometry">
                        <mxRectangle x="80" y="40" width="80" height="30" as="alternateBounds"/>
                    </mxGeometry>
                </mxCell>
                <mxCell id="7" value="&lt;div style=&quot;forced-color-adjust: none; color: rgb(0, 0, 0); font-family: Helvetica; font-size: 12px; font-style: normal; font-variant-ligatures: normal; font-variant-caps: normal; font-weight: 400; letter-spacing: normal; orphans: 2; text-align: left; text-indent: 0px; text-transform: none; widows: 2; word-spacing: 0px; -webkit-text-stroke-width: 0px; white-space: normal; background-color: rgb(236, 236, 236); text-decoration-thickness: initial; text-decoration-style: initial; text-decoration-color: initial;&quot;&gt;ID (PK, Auto Increment)&lt;/div&gt;&lt;div style=&quot;forced-color-adjust: none; color: rgb(0, 0, 0); font-family: Helvetica; font-size: 12px; font-style: normal; font-variant-ligatures: normal; font-variant-caps: normal; font-weight: 400; letter-spacing: normal; orphans: 2; text-align: left; text-indent: 0px; text-transform: none; widows: 2; word-spacing: 0px; -webkit-text-stroke-width: 0px; white-space: normal; background-color: rgb(236, 236, 236); text-decoration-thickness: initial; text-decoration-style: initial; text-decoration-color: initial;&quot;&gt;Username (String)&lt;/div&gt;&lt;div style=&quot;forced-color-adjust: none; color: rgb(0, 0, 0); font-family: Helvetica; font-size: 12px; font-style: normal; font-variant-ligatures: normal; font-variant-caps: normal; font-weight: 400; letter-spacing: normal; orphans: 2; text-align: left; text-indent: 0px; text-transform: none; widows: 2; word-spacing: 0px; -webkit-text-stroke-width: 0px; white-space: normal; background-color: rgb(236, 236, 236); text-decoration-thickness: initial; text-decoration-style: initial; text-decoration-color: initial;&quot;&gt;&lt;span style=&quot;forced-color-adjust: none; background-color: transparent; color: light-dark(rgb(0, 0, 0), rgb(255, 255, 255));&quot;&gt;Password (String)&lt;/span&gt;&lt;/div&gt;&lt;div style=&quot;forced-color-adjust: none; color: rgb(0, 0, 0); font-family: Helvetica; font-size: 12px; font-style: normal; font-variant-ligatures: normal; font-variant-caps: normal; font-weight: 400; letter-spacing: normal; orphans: 2; text-align: left; text-indent: 0px; text-transform: none; widows: 2; word-spacing: 0px; -webkit-text-stroke-width: 0px; white-space: normal; background-color: rgb(236, 236, 236); text-decoration-thickness: initial; text-decoration-style: initial; text-decoration-color: initial;&quot;&gt;&lt;span style=&quot;forced-color-adjust: none; background-color: transparent; color: light-dark(rgb(0, 0, 0), rgb(255, 255, 255));&quot;&gt;Created_At&lt;/span&gt;&lt;/div&gt;&lt;div style=&quot;forced-color-adjust: none; color: rgb(0, 0, 0); font-family: Helvetica; font-size: 12px; font-style: normal; font-variant-ligatures: normal; font-variant-caps: normal; font-weight: 400; letter-spacing: normal; orphans: 2; text-align: left; text-indent: 0px; text-transform: none; widows: 2; word-spacing: 0px; -webkit-text-stroke-width: 0px; white-space: normal; background-color: rgb(236, 236, 236); text-decoration-thickness: initial; text-decoration-style: initial; text-decoration-color: initial;&quot;&gt;Updated_At&amp;nbsp; &amp;nbsp;&lt;/div&gt;" style="text;strokeColor=none;fillColor=none;spacingLeft=4;spacingRight=4;overflow=hidden;rotatable=0;points=[[0,0.5],[1,0.5]];portConstraint=eastwest;fontSize=12;whiteSpace=wrap;html=1;rounded=0;labelBackgroundColor=none;fontColor=#393C56;" vertex="1" parent="6">
                    <mxGeometry y="26" width="150" height="80" as="geometry"/>
                </mxCell>
                <mxCell id="8" value="Configurations" style="swimlane;fontStyle=0;childLayout=stackLayout;horizontal=1;startSize=26;horizontalStack=0;resizeParent=1;resizeParentMax=0;resizeLast=0;collapsible=1;marginBottom=0;align=center;fontSize=14;rounded=0;labelBackgroundColor=none;fillColor=#F2CC8F;strokeColor=#E07A5F;fontColor=#393C56;" vertex="1" parent="1">
                    <mxGeometry x="184" y="207" width="150" height="120" as="geometry">
                        <mxRectangle x="80" y="160" width="110" height="30" as="alternateBounds"/>
                    </mxGeometry>
                </mxCell>
                <mxCell id="9" value="&lt;div style=&quot;forced-color-adjust: none; orphans: 2; text-align: left; text-indent: 0px; widows: 2; background-color: rgb(236, 236, 236); text-decoration-thickness: initial; text-decoration-style: initial; text-decoration-color: initial; color: rgb(0, 0, 0);&quot;&gt;&lt;div style=&quot;background-color: rgb(236, 236, 236); color: rgb(0, 0, 0);&quot;&gt;ID (PK, Auto Increment)&lt;/div&gt;&lt;div style=&quot;background-color: rgb(236, 236, 236); color: rgb(0, 0, 0);&quot;&gt;User_ID (FK -&amp;gt; Users.ID)&lt;/div&gt;&lt;div style=&quot;background-color: rgb(236, 236, 236); color: rgb(0, 0, 0);&quot;&gt;Name (String)&lt;/div&gt;&lt;div style=&quot;background-color: rgb(236, 236, 236); color: rgb(0, 0, 0);&quot;&gt;Description (String)&lt;/div&gt;&lt;div style=&quot;background-color: rgb(236, 236, 236); color: rgb(0, 0, 0);&quot;&gt;Created_At&amp;nbsp;&lt;/div&gt;&lt;div style=&quot;background-color: rgb(236, 236, 236); color: rgb(0, 0, 0);&quot;&gt;Updated_At&lt;/div&gt;&lt;/div&gt;" style="text;strokeColor=none;fillColor=none;spacingLeft=4;spacingRight=4;overflow=hidden;rotatable=0;points=[[0,0.5],[1,0.5]];portConstraint=eastwest;fontSize=12;whiteSpace=wrap;html=1;rounded=0;labelBackgroundColor=none;fontColor=#393C56;" vertex="1" parent="8">
                    <mxGeometry y="26" width="150" height="94" as="geometry"/>
                </mxCell>
                <mxCell id="10" value="Configuration_Elements  " style="swimlane;fontStyle=0;childLayout=stackLayout;horizontal=1;startSize=26;horizontalStack=0;resizeParent=1;resizeParentMax=0;resizeLast=0;collapsible=1;marginBottom=0;align=center;fontSize=14;rounded=0;labelBackgroundColor=none;fillColor=#F2CC8F;strokeColor=#E07A5F;fontColor=#393C56;" vertex="1" parent="1">
                    <mxGeometry x="184" y="337" width="180" height="200" as="geometry">
                        <mxRectangle x="80" y="160" width="110" height="30" as="alternateBounds"/>
                    </mxGeometry>
                </mxCell>
                <mxCell id="11" value="&lt;div style=&quot;forced-color-adjust: none; orphans: 2; text-align: left; text-indent: 0px; widows: 2; background-color: rgb(236, 236, 236); text-decoration-thickness: initial; text-decoration-style: initial; text-decoration-color: initial; color: rgb(0, 0, 0);&quot;&gt;&lt;div style=&quot;background-color: rgb(236, 236, 236); color: rgb(0, 0, 0);&quot;&gt;ID (PK, Auto Increment)&amp;nbsp;&amp;nbsp;&lt;/div&gt;&lt;div style=&quot;background-color: rgb(236, 236, 236); color: rgb(0, 0, 0);&quot;&gt;Configuration_ID (Integer)&lt;/div&gt;&lt;div style=&quot;background-color: rgb(236, 236, 236); color: rgb(0, 0, 0);&quot;&gt;Element_type (Enum)&lt;/div&gt;&lt;div style=&quot;background-color: rgb(236, 236, 236); color: rgb(0, 0, 0);&quot;&gt;X_Position (Integer)&amp;nbsp; &amp;nbsp; &amp;nbsp; &amp;nbsp; &amp;nbsp; &amp;nbsp; Y_Position (Integer)&amp;nbsp;&lt;/div&gt;&lt;div style=&quot;background-color: rgb(236, 236, 236); color: rgb(0, 0, 0);&quot;&gt;Width (Integer)&lt;/div&gt;&lt;div style=&quot;background-color: rgb(236, 236, 236); color: rgb(0, 0, 0);&quot;&gt;Height (Integer)&lt;/div&gt;&lt;div style=&quot;background-color: rgb(236, 236, 236); color: rgb(0, 0, 0);&quot;&gt;Label (String)&lt;/div&gt;&lt;div style=&quot;background-color: rgb(236, 236, 236); color: rgb(0, 0, 0);&quot;&gt;Control_Function (Enum) Target_Type (Enum)&lt;/div&gt;&lt;div style=&quot;background-color: rgb(236, 236, 236); color: rgb(0, 0, 0);&quot;&gt;Target_ID (Integer)&lt;/div&gt;&lt;/div&gt;" style="text;strokeColor=none;fillColor=none;spacingLeft=4;spacingRight=4;overflow=hidden;rotatable=0;points=[[0,0.5],[1,0.5]];portConstraint=eastwest;fontSize=12;whiteSpace=wrap;html=1;rounded=0;labelBackgroundColor=none;fontColor=#393C56;" vertex="1" parent="10">
                    <mxGeometry y="26" width="180" height="174" as="geometry"/>
                </mxCell>
                <mxCell id="12" value="Element_type (Enum: Button, Fader, Knobs, EQ_Slider, Group_Fader, Display, Meter)" style="text;whiteSpace=wrap;rounded=0;labelBackgroundColor=none;fontColor=#393C56;" vertex="1" parent="1">
                    <mxGeometry x="364" y="394" width="490" height="31" as="geometry"/>
                </mxCell>
                <mxCell id="13" value="Control_Function (Enum: Volume, Pan, EQ, Send )" style="text;whiteSpace=wrap;rounded=0;labelBackgroundColor=none;fontColor=#393C56;" vertex="1" parent="1">
                    <mxGeometry x="364" y="478" width="300" height="21" as="geometry"/>
                </mxCell>
                <mxCell id="14" value="Target_Type (enum: Channel, Group, Output, Global)" style="text;whiteSpace=wrap;rounded=0;labelBackgroundColor=none;fontColor=#393C56;" vertex="1" parent="1">
                    <mxGeometry x="364" y="495" width="320" height="21" as="geometry"/>
                </mxCell>
                <mxCell id="15" value="Elements" style="swimlane;fontStyle=0;childLayout=stackLayout;horizontal=1;startSize=26;horizontalStack=0;resizeParent=1;resizeParentMax=0;resizeLast=0;collapsible=1;marginBottom=0;align=center;fontSize=14;rounded=0;labelBackgroundColor=none;fillColor=#F2CC8F;strokeColor=#E07A5F;fontColor=#393C56;" vertex="1" parent="1">
                    <mxGeometry x="481" y="601" width="180" height="200" as="geometry">
                        <mxRectangle x="80" y="160" width="110" height="30" as="alternateBounds"/>
                    </mxGeometry>
                </mxCell>
                <mxCell id="16" value="&lt;div style=&quot;forced-color-adjust: none; orphans: 2; text-align: left; text-indent: 0px; widows: 2; background-color: rgb(236, 236, 236); text-decoration-thickness: initial; text-decoration-style: initial; text-decoration-color: initial; color: rgb(0, 0, 0);&quot;&gt;&lt;div style=&quot;background-color: rgb(236, 236, 236); color: rgb(0, 0, 0);&quot;&gt;ID (PK, Auto Increment)&amp;nbsp; Element_type (Enum)&amp;nbsp; &amp;nbsp; &amp;nbsp; X_Position (Integer)&amp;nbsp; &amp;nbsp; Y_Position (Integer)&lt;/div&gt;&lt;div style=&quot;background-color: rgb(236, 236, 236); color: rgb(0, 0, 0);&quot;&gt;Width (Integer)&lt;/div&gt;&lt;div style=&quot;background-color: rgb(236, 236, 236); color: rgb(0, 0, 0);&quot;&gt;Height (Integer)&lt;/div&gt;&lt;div style=&quot;background-color: rgb(236, 236, 236); color: rgb(0, 0, 0);&quot;&gt;Label (String)&lt;/div&gt;&lt;div style=&quot;background-color: rgb(236, 236, 236); color: rgb(0, 0, 0);&quot;&gt;Control_Function (Enum)&lt;/div&gt;&lt;div style=&quot;background-color: rgb(236, 236, 236); color: rgb(0, 0, 0);&quot;&gt;Target_Type (Enum)&lt;/div&gt;&lt;div style=&quot;background-color: rgb(236, 236, 236); color: rgb(0, 0, 0);&quot;&gt;Target_ID (Integer)&lt;/div&gt;&lt;div style=&quot;background-color: rgb(236, 236, 236); color: rgb(0, 0, 0);&quot;&gt;Status (String)&lt;/div&gt;&lt;/div&gt;" style="text;strokeColor=none;fillColor=none;spacingLeft=4;spacingRight=4;overflow=hidden;rotatable=0;points=[[0,0.5],[1,0.5]];portConstraint=eastwest;fontSize=12;whiteSpace=wrap;html=1;rounded=0;labelBackgroundColor=none;fontColor=#393C56;" vertex="1" parent="15">
                    <mxGeometry y="26" width="180" height="174" as="geometry"/>
                </mxCell>
                <mxCell id="17" value="Buttons (1)" style="swimlane;fontStyle=0;childLayout=stackLayout;horizontal=1;startSize=26;horizontalStack=0;resizeParent=1;resizeParentMax=0;resizeLast=0;collapsible=1;marginBottom=0;align=center;fontSize=14;rounded=0;labelBackgroundColor=none;fillColor=#F2CC8F;strokeColor=#E07A5F;fontColor=#393C56;" vertex="1" parent="1">
                    <mxGeometry x="420" y="865" width="111" height="130" as="geometry">
                        <mxRectangle x="80" y="160" width="110" height="30" as="alternateBounds"/>
                    </mxGeometry>
                </mxCell>
                <mxCell id="18" value="&lt;div style=&quot;forced-color-adjust: none; orphans: 2; text-align: left; text-indent: 0px; widows: 2; background-color: rgb(236, 236, 236); text-decoration-thickness: initial; text-decoration-style: initial; text-decoration-color: initial; color: rgb(0, 0, 0);&quot;&gt;&lt;div style=&quot;color: rgb(0, 0, 0); background-color: rgb(236, 236, 236);&quot;&gt;ID (PK)&lt;/div&gt;&lt;div style=&quot;color: rgb(0, 0, 0); background-color: rgb(236, 236, 236);&quot;&gt;Element_ID (FK)&lt;/div&gt;&lt;div style=&quot;background-color: rgb(236, 236, 236); color: rgb(0, 0, 0);&quot;&gt;Image_Path&lt;/div&gt;&lt;div style=&quot;background-color: rgb(236, 236, 236); color: rgb(0, 0, 0);&quot;&gt;Status&lt;/div&gt;&lt;/div&gt;" style="text;strokeColor=none;fillColor=none;spacingLeft=4;spacingRight=4;overflow=hidden;rotatable=0;points=[[0,0.5],[1,0.5]];portConstraint=eastwest;fontSize=12;whiteSpace=wrap;html=1;rounded=0;labelBackgroundColor=none;fontColor=#393C56;" vertex="1" parent="17">
                    <mxGeometry y="26" width="111" height="104" as="geometry"/>
                </mxCell>
                <mxCell id="19" value="Faders (0)" style="swimlane;fontStyle=0;childLayout=stackLayout;horizontal=1;startSize=26;horizontalStack=0;resizeParent=1;resizeParentMax=0;resizeLast=0;collapsible=1;marginBottom=0;align=center;fontSize=14;rounded=0;labelBackgroundColor=none;fillColor=#F2CC8F;strokeColor=#E07A5F;fontColor=#393C56;" vertex="1" parent="1">
                    <mxGeometry x="300" y="865" width="111" height="130" as="geometry">
                        <mxRectangle x="80" y="160" width="110" height="30" as="alternateBounds"/>
                    </mxGeometry>
                </mxCell>
                <mxCell id="20" value="&lt;div style=&quot;forced-color-adjust: none; orphans: 2; text-align: left; text-indent: 0px; widows: 2; background-color: rgb(236, 236, 236); text-decoration-thickness: initial; text-decoration-style: initial; text-decoration-color: initial; color: rgb(0, 0, 0);&quot;&gt;&lt;div style=&quot;color: rgb(0, 0, 0); background-color: rgb(236, 236, 236);&quot;&gt;ID (PK)&lt;/div&gt;&lt;div style=&quot;color: rgb(0, 0, 0); background-color: rgb(236, 236, 236);&quot;&gt;Element_ID (FK)&lt;/div&gt;&lt;div style=&quot;color: rgb(0, 0, 0); background-color: rgb(236, 236, 236);&quot;&gt;Default_Value&lt;/div&gt;&lt;div style=&quot;color: rgb(0, 0, 0); background-color: rgb(236, 236, 236);&quot;&gt;Value&lt;/div&gt;&lt;div style=&quot;background-color: rgb(236, 236, 236); color: rgb(0, 0, 0);&quot;&gt;Min_Value&lt;/div&gt;&lt;div style=&quot;background-color: rgb(236, 236, 236); color: rgb(0, 0, 0);&quot;&gt;Max_Value&lt;/div&gt;&lt;/div&gt;" style="text;strokeColor=none;fillColor=none;spacingLeft=4;spacingRight=4;overflow=hidden;rotatable=0;points=[[0,0.5],[1,0.5]];portConstraint=eastwest;fontSize=12;whiteSpace=wrap;html=1;rounded=0;labelBackgroundColor=none;fontColor=#393C56;" vertex="1" parent="19">
                    <mxGeometry y="26" width="111" height="104" as="geometry"/>
                </mxCell>
                <mxCell id="21" value="Knobs (2)" style="swimlane;fontStyle=0;childLayout=stackLayout;horizontal=1;startSize=26;horizontalStack=0;resizeParent=1;resizeParentMax=0;resizeLast=0;collapsible=1;marginBottom=0;align=center;fontSize=14;rounded=0;labelBackgroundColor=none;fillColor=#F2CC8F;strokeColor=#E07A5F;fontColor=#393C56;" vertex="1" parent="1">
                    <mxGeometry x="540" y="865" width="111" height="130" as="geometry">
                        <mxRectangle x="80" y="160" width="110" height="30" as="alternateBounds"/>
                    </mxGeometry>
                </mxCell>
                <mxCell id="22" value="&lt;div style=&quot;forced-color-adjust: none; orphans: 2; text-align: left; text-indent: 0px; widows: 2; background-color: rgb(236, 236, 236); text-decoration-thickness: initial; text-decoration-style: initial; text-decoration-color: initial; color: rgb(0, 0, 0);&quot;&gt;&lt;div style=&quot;color: rgb(0, 0, 0); background-color: rgb(236, 236, 236);&quot;&gt;ID (PK)&lt;/div&gt;&lt;div style=&quot;color: rgb(0, 0, 0); background-color: rgb(236, 236, 236);&quot;&gt;Element_ID (FK)&lt;/div&gt;&lt;div style=&quot;color: rgb(0, 0, 0); background-color: rgb(236, 236, 236);&quot;&gt;Default_Value&lt;/div&gt;&lt;div style=&quot;color: rgb(0, 0, 0); background-color: rgb(236, 236, 236);&quot;&gt;Value&lt;/div&gt;&lt;div style=&quot;background-color: rgb(236, 236, 236); color: rgb(0, 0, 0);&quot;&gt;Min_Value&lt;/div&gt;&lt;div style=&quot;background-color: rgb(236, 236, 236); color: rgb(0, 0, 0);&quot;&gt;Max_Value&lt;/div&gt;&lt;/div&gt;" style="text;strokeColor=none;fillColor=none;spacingLeft=4;spacingRight=4;overflow=hidden;rotatable=0;points=[[0,0.5],[1,0.5]];portConstraint=eastwest;fontSize=12;whiteSpace=wrap;html=1;rounded=0;labelBackgroundColor=none;fontColor=#393C56;" vertex="1" parent="21">
                    <mxGeometry y="26" width="111" height="104" as="geometry"/>
                </mxCell>
                <mxCell id="23" value="EQ_Sliders (3)" style="swimlane;fontStyle=0;childLayout=stackLayout;horizontal=1;startSize=26;horizontalStack=0;resizeParent=1;resizeParentMax=0;resizeLast=0;collapsible=1;marginBottom=0;align=center;fontSize=14;rounded=0;labelBackgroundColor=none;fillColor=#F2CC8F;strokeColor=#E07A5F;fontColor=#393C56;" vertex="1" parent="1">
                    <mxGeometry x="660" y="865" width="121" height="140" as="geometry">
                        <mxRectangle x="80" y="160" width="110" height="30" as="alternateBounds"/>
                    </mxGeometry>
                </mxCell>
                <mxCell id="24" value="&lt;div style=&quot;forced-color-adjust: none; orphans: 2; text-align: left; text-indent: 0px; widows: 2; background-color: rgb(236, 236, 236); text-decoration-thickness: initial; text-decoration-style: initial; text-decoration-color: initial; color: rgb(0, 0, 0);&quot;&gt;&lt;div style=&quot;color: rgb(0, 0, 0); background-color: rgb(236, 236, 236);&quot;&gt;ID (PK)&lt;/div&gt;&lt;div style=&quot;color: rgb(0, 0, 0); background-color: rgb(236, 236, 236);&quot;&gt;Element_ID (FK)&lt;/div&gt;&lt;div style=&quot;background-color: rgb(236, 236, 236); color: rgb(0, 0, 0);&quot;&gt;Frequency_Band&amp;nbsp; &amp;nbsp; &amp;nbsp;&lt;/div&gt;&lt;div style=&quot;color: rgb(0, 0, 0); background-color: rgb(236, 236, 236);&quot;&gt;Default_Value&lt;/div&gt;&lt;div style=&quot;color: rgb(0, 0, 0); background-color: rgb(236, 236, 236);&quot;&gt;Value&lt;/div&gt;&lt;div style=&quot;color: rgb(0, 0, 0); background-color: rgb(236, 236, 236);&quot;&gt;Min_Value&lt;/div&gt;&lt;div style=&quot;color: rgb(0, 0, 0); background-color: rgb(236, 236, 236);&quot;&gt;Max_Value&lt;/div&gt;&lt;/div&gt;" style="text;strokeColor=none;fillColor=none;spacingLeft=4;spacingRight=4;overflow=hidden;rotatable=0;points=[[0,0.5],[1,0.5]];portConstraint=eastwest;fontSize=12;whiteSpace=wrap;html=1;rounded=0;labelBackgroundColor=none;fontColor=#393C56;" vertex="1" parent="23">
                    <mxGeometry y="26" width="121" height="114" as="geometry"/>
                </mxCell>
                <mxCell id="25" value="Displays (4)" style="swimlane;fontStyle=0;childLayout=stackLayout;horizontal=1;startSize=26;horizontalStack=0;resizeParent=1;resizeParentMax=0;resizeLast=0;collapsible=1;marginBottom=0;align=center;fontSize=14;rounded=0;labelBackgroundColor=none;fillColor=#F2CC8F;strokeColor=#E07A5F;fontColor=#393C56;" vertex="1" parent="1">
                    <mxGeometry x="790" y="865" width="111" height="130" as="geometry">
                        <mxRectangle x="80" y="160" width="110" height="30" as="alternateBounds"/>
                    </mxGeometry>
                </mxCell>
                <mxCell id="26" value="&lt;div style=&quot;forced-color-adjust: none; orphans: 2; text-align: left; text-indent: 0px; widows: 2; background-color: rgb(236, 236, 236); text-decoration-thickness: initial; text-decoration-style: initial; text-decoration-color: initial; color: rgb(0, 0, 0);&quot;&gt;&lt;div style=&quot;color: rgb(0, 0, 0); background-color: rgb(236, 236, 236);&quot;&gt;ID (PK)&lt;/div&gt;&lt;div style=&quot;color: rgb(0, 0, 0); background-color: rgb(236, 236, 236);&quot;&gt;Element_ID (FK)&lt;/div&gt;&lt;div style=&quot;background-color: rgb(236, 236, 236); color: rgb(0, 0, 0);&quot;&gt;Display_Type&lt;/div&gt;&lt;div style=&quot;background-color: rgb(236, 236, 236); color: rgb(0, 0, 0);&quot;&gt;&lt;span style=&quot;color: rgb(0, 0, 0);&quot;&gt;Value&lt;/span&gt;&lt;/div&gt;&lt;/div&gt;" style="text;strokeColor=none;fillColor=none;spacingLeft=4;spacingRight=4;overflow=hidden;rotatable=0;points=[[0,0.5],[1,0.5]];portConstraint=eastwest;fontSize=12;whiteSpace=wrap;html=1;rounded=0;labelBackgroundColor=none;fontColor=#393C56;" vertex="1" parent="25">
                    <mxGeometry y="26" width="111" height="104" as="geometry"/>
                </mxCell>
                <mxCell id="27" value="Meters (5)" style="swimlane;fontStyle=0;childLayout=stackLayout;horizontal=1;startSize=26;horizontalStack=0;resizeParent=1;resizeParentMax=0;resizeLast=0;collapsible=1;marginBottom=0;align=center;fontSize=14;rounded=0;labelBackgroundColor=none;fillColor=#F2CC8F;strokeColor=#E07A5F;fontColor=#393C56;" vertex="1" parent="1">
                    <mxGeometry x="910" y="865" width="111" height="130" as="geometry">
                        <mxRectangle x="80" y="160" width="110" height="30" as="alternateBounds"/>
                    </mxGeometry>
                </mxCell>
                <mxCell id="28" value="&lt;div style=&quot;forced-color-adjust: none; orphans: 2; text-align: left; text-indent: 0px; widows: 2; background-color: rgb(236, 236, 236); text-decoration-thickness: initial; text-decoration-style: initial; text-decoration-color: initial; color: rgb(0, 0, 0);&quot;&gt;&lt;div style=&quot;color: rgb(0, 0, 0); background-color: rgb(236, 236, 236);&quot;&gt;ID (PK)&lt;/div&gt;&lt;div style=&quot;color: rgb(0, 0, 0); background-color: rgb(236, 236, 236);&quot;&gt;Element_ID (FK)&lt;/div&gt;&lt;div style=&quot;color: rgb(0, 0, 0); background-color: rgb(236, 236, 236);&quot;&gt;Meter_Type&amp;nbsp;&lt;/div&gt;&lt;div style=&quot;color: rgb(0, 0, 0); background-color: rgb(236, 236, 236);&quot;&gt;&lt;span style=&quot;color: rgb(0, 0, 0);&quot;&gt;Current_Level&lt;/span&gt;&lt;/div&gt;&lt;div style=&quot;background-color: rgb(236, 236, 236); color: rgb(0, 0, 0);&quot;&gt;&lt;span style=&quot;color: rgb(0, 0, 0);&quot;&gt;Peak_Level&amp;nbsp; &amp;nbsp; &amp;nbsp; &amp;nbsp; &amp;nbsp;&lt;/span&gt;&lt;/div&gt;&lt;/div&gt;" style="text;strokeColor=none;fillColor=none;spacingLeft=4;spacingRight=4;overflow=hidden;rotatable=0;points=[[0,0.5],[1,0.5]];portConstraint=eastwest;fontSize=12;whiteSpace=wrap;html=1;rounded=0;labelBackgroundColor=none;fontColor=#393C56;" vertex="1" parent="27">
                    <mxGeometry y="26" width="111" height="104" as="geometry"/>
                </mxCell>
                <mxCell id="29" value="Presets" style="swimlane;fontStyle=0;childLayout=stackLayout;horizontal=1;startSize=26;horizontalStack=0;resizeParent=1;resizeParentMax=0;resizeLast=0;collapsible=1;marginBottom=0;align=center;fontSize=14;rounded=0;labelBackgroundColor=none;fillColor=#F2CC8F;strokeColor=#E07A5F;fontColor=#393C56;" vertex="1" parent="1">
                    <mxGeometry x="914" y="214" width="150" height="130" as="geometry">
                        <mxRectangle x="80" y="160" width="110" height="30" as="alternateBounds"/>
                    </mxGeometry>
                </mxCell>
                <mxCell id="30" value="&lt;div style=&quot;forced-color-adjust: none; orphans: 2; text-align: left; text-indent: 0px; widows: 2; background-color: rgb(236, 236, 236); text-decoration-thickness: initial; text-decoration-style: initial; text-decoration-color: initial; color: rgb(0, 0, 0);&quot;&gt;&lt;div style=&quot;background-color: rgb(236, 236, 236); color: rgb(0, 0, 0);&quot;&gt;ID (PK, Auto Increment)&lt;/div&gt;&lt;div style=&quot;background-color: rgb(236, 236, 236); color: rgb(0, 0, 0);&quot;&gt;User_ID (FK -&amp;gt; Users.ID)&lt;/div&gt;&lt;div style=&quot;background-color: rgb(236, 236, 236); color: rgb(0, 0, 0);&quot;&gt;Name (String)&lt;/div&gt;&lt;div style=&quot;background-color: rgb(236, 236, 236); color: rgb(0, 0, 0);&quot;&gt;Description (String)&lt;/div&gt;&lt;div style=&quot;background-color: rgb(236, 236, 236); color: rgb(0, 0, 0);&quot;&gt;Created_At&amp;nbsp;&lt;/div&gt;&lt;div style=&quot;background-color: rgb(236, 236, 236); color: rgb(0, 0, 0);&quot;&gt;Updated_At&lt;/div&gt;&lt;/div&gt;" style="text;strokeColor=none;fillColor=none;spacingLeft=4;spacingRight=4;overflow=hidden;rotatable=0;points=[[0,0.5],[1,0.5]];portConstraint=eastwest;fontSize=12;whiteSpace=wrap;html=1;rounded=0;labelBackgroundColor=none;fontColor=#393C56;" vertex="1" parent="29">
                    <mxGeometry y="26" width="150" height="104" as="geometry"/>
                </mxCell>
                <mxCell id="31" value="Preset_Settings" style="swimlane;fontStyle=0;childLayout=stackLayout;horizontal=1;startSize=26;horizontalStack=0;resizeParent=1;resizeParentMax=0;resizeLast=0;collapsible=1;marginBottom=0;align=center;fontSize=14;rounded=0;labelBackgroundColor=none;fillColor=#F2CC8F;strokeColor=#E07A5F;fontColor=#393C56;" vertex="1" parent="1">
                    <mxGeometry x="914" y="363" width="200" height="100" as="geometry">
                        <mxRectangle x="80" y="160" width="110" height="30" as="alternateBounds"/>
                    </mxGeometry>
                </mxCell>
                <mxCell id="32" value="&lt;div style=&quot;forced-color-adjust: none; orphans: 2; text-align: left; text-indent: 0px; widows: 2; background-color: rgb(236, 236, 236); text-decoration-thickness: initial; text-decoration-style: initial; text-decoration-color: initial; color: rgb(0, 0, 0);&quot;&gt;&lt;div style=&quot;color: rgb(0, 0, 0); background-color: rgb(236, 236, 236);&quot;&gt;ID (PK, Auto Increment)&lt;/div&gt;&lt;div style=&quot;background-color: rgb(236, 236, 236); color: rgb(0, 0, 0);&quot;&gt;Preset_ID (FK -&amp;gt; Presets.ID)&lt;/div&gt;&lt;div style=&quot;color: rgb(0, 0, 0); background-color: rgb(236, 236, 236);&quot;&gt;Element_ID (FK -&amp;gt; Elements.ID)&lt;/div&gt;&lt;div style=&quot;color: rgb(0, 0, 0); background-color: rgb(236, 236, 236);&quot;&gt;Value (String)&lt;/div&gt;&lt;/div&gt;" style="text;strokeColor=none;fillColor=none;spacingLeft=4;spacingRight=4;overflow=hidden;rotatable=0;points=[[0,0.5],[1,0.5]];portConstraint=eastwest;fontSize=12;whiteSpace=wrap;html=1;rounded=0;labelBackgroundColor=none;fontColor=#393C56;" vertex="1" parent="31">
                    <mxGeometry y="26" width="200" height="74" as="geometry"/>
                </mxCell>
                <mxCell id="33" value="Groups" style="swimlane;fontStyle=0;childLayout=stackLayout;horizontal=1;startSize=26;horizontalStack=0;resizeParent=1;resizeParentMax=0;resizeLast=0;collapsible=1;marginBottom=0;align=center;fontSize=14;rounded=0;labelBackgroundColor=none;fillColor=#F2CC8F;strokeColor=#E07A5F;fontColor=#393C56;" vertex="1" parent="1">
                    <mxGeometry x="301" y="1065" width="110" height="80" as="geometry">
                        <mxRectangle x="80" y="160" width="110" height="30" as="alternateBounds"/>
                    </mxGeometry>
                </mxCell>
                <mxCell id="34" value="&lt;div style=&quot;forced-color-adjust: none; orphans: 2; text-align: left; text-indent: 0px; widows: 2; background-color: rgb(236, 236, 236); text-decoration-thickness: initial; text-decoration-style: initial; text-decoration-color: initial; color: rgb(0, 0, 0);&quot;&gt;&lt;div style=&quot;color: rgb(0, 0, 0); background-color: rgb(236, 236, 236);&quot;&gt;ID (PK)&lt;/div&gt;&lt;div style=&quot;background-color: rgb(236, 236, 236); color: rgb(0, 0, 0);&quot;&gt;Label (String)&lt;/div&gt;&lt;/div&gt;" style="text;strokeColor=none;fillColor=none;spacingLeft=4;spacingRight=4;overflow=hidden;rotatable=0;points=[[0,0.5],[1,0.5]];portConstraint=eastwest;fontSize=12;whiteSpace=wrap;html=1;rounded=0;labelBackgroundColor=none;fontColor=#393C56;" vertex="1" parent="33">
                    <mxGeometry y="26" width="110" height="54" as="geometry"/>
                </mxCell>
                <mxCell id="35" value="Channels" style="swimlane;fontStyle=0;childLayout=stackLayout;horizontal=1;startSize=26;horizontalStack=0;resizeParent=1;resizeParentMax=0;resizeLast=0;collapsible=1;marginBottom=0;align=center;fontSize=14;rounded=0;labelBackgroundColor=none;fillColor=#F2CC8F;strokeColor=#E07A5F;fontColor=#393C56;" vertex="1" parent="1">
                    <mxGeometry x="421" y="1065" width="110" height="80" as="geometry">
                        <mxRectangle x="80" y="160" width="110" height="30" as="alternateBounds"/>
                    </mxGeometry>
                </mxCell>
                <mxCell id="36" value="&lt;div style=&quot;forced-color-adjust: none; orphans: 2; text-align: left; text-indent: 0px; widows: 2; background-color: rgb(236, 236, 236); text-decoration-thickness: initial; text-decoration-style: initial; text-decoration-color: initial; color: rgb(0, 0, 0);&quot;&gt;&lt;div style=&quot;color: rgb(0, 0, 0); background-color: rgb(236, 236, 236);&quot;&gt;ID (PK)&lt;/div&gt;&lt;div style=&quot;background-color: rgb(236, 236, 236); color: rgb(0, 0, 0);&quot;&gt;Label (String)&lt;/div&gt;&lt;/div&gt;" style="text;strokeColor=none;fillColor=none;spacingLeft=4;spacingRight=4;overflow=hidden;rotatable=0;points=[[0,0.5],[1,0.5]];portConstraint=eastwest;fontSize=12;whiteSpace=wrap;html=1;rounded=0;labelBackgroundColor=none;fontColor=#393C56;" vertex="1" parent="35">
                    <mxGeometry y="26" width="110" height="54" as="geometry"/>
                </mxCell>
                <mxCell id="37" value="Outputs" style="swimlane;fontStyle=0;childLayout=stackLayout;horizontal=1;startSize=26;horizontalStack=0;resizeParent=1;resizeParentMax=0;resizeLast=0;collapsible=1;marginBottom=0;align=center;fontSize=14;rounded=0;labelBackgroundColor=none;fillColor=#F2CC8F;strokeColor=#E07A5F;fontColor=#393C56;" vertex="1" parent="1">
                    <mxGeometry x="540" y="1065" width="110" height="80" as="geometry">
                        <mxRectangle x="80" y="160" width="110" height="30" as="alternateBounds"/>
                    </mxGeometry>
                </mxCell>
                <mxCell id="38" value="&lt;div style=&quot;forced-color-adjust: none; orphans: 2; text-align: left; text-indent: 0px; widows: 2; background-color: rgb(236, 236, 236); text-decoration-thickness: initial; text-decoration-style: initial; text-decoration-color: initial; color: rgb(0, 0, 0);&quot;&gt;&lt;div style=&quot;color: rgb(0, 0, 0); background-color: rgb(236, 236, 236);&quot;&gt;ID (PK)&lt;/div&gt;&lt;div style=&quot;background-color: rgb(236, 236, 236); color: rgb(0, 0, 0);&quot;&gt;Label (String)&lt;/div&gt;&lt;/div&gt;" style="text;strokeColor=none;fillColor=none;spacingLeft=4;spacingRight=4;overflow=hidden;rotatable=0;points=[[0,0.5],[1,0.5]];portConstraint=eastwest;fontSize=12;whiteSpace=wrap;html=1;rounded=0;labelBackgroundColor=none;fontColor=#393C56;" vertex="1" parent="37">
                    <mxGeometry y="26" width="110" height="54" as="geometry"/>
                </mxCell>
                <mxCell id="39" value="Channel_Group_Mapping" style="swimlane;fontStyle=0;childLayout=stackLayout;horizontal=1;startSize=26;horizontalStack=0;resizeParent=1;resizeParentMax=0;resizeLast=0;collapsible=1;marginBottom=0;align=center;fontSize=14;rounded=0;labelBackgroundColor=none;fillColor=#F2CC8F;strokeColor=#E07A5F;fontColor=#393C56;" vertex="1" parent="1">
                    <mxGeometry x="300" y="1190" width="170" height="80" as="geometry">
                        <mxRectangle x="80" y="160" width="110" height="30" as="alternateBounds"/>
                    </mxGeometry>
                </mxCell>
                <mxCell id="40" value="&lt;div style=&quot;forced-color-adjust: none; orphans: 2; text-align: left; text-indent: 0px; widows: 2; background-color: rgb(236, 236, 236); text-decoration-thickness: initial; text-decoration-style: initial; text-decoration-color: initial; color: rgb(0, 0, 0);&quot;&gt;&lt;div style=&quot;color: rgb(0, 0, 0); background-color: rgb(236, 236, 236);&quot;&gt;ID (PK)&lt;/div&gt;&lt;div style=&quot;background-color: rgb(236, 236, 236); color: rgb(0, 0, 0);&quot;&gt;Channel_ID&lt;/div&gt;&lt;div style=&quot;background-color: rgb(236, 236, 236); color: rgb(0, 0, 0);&quot;&gt;Group_ID&lt;/div&gt;&lt;/div&gt;" style="text;strokeColor=none;fillColor=none;spacingLeft=4;spacingRight=4;overflow=hidden;rotatable=0;points=[[0,0.5],[1,0.5]];portConstraint=eastwest;fontSize=12;whiteSpace=wrap;html=1;rounded=0;labelBackgroundColor=none;fontColor=#393C56;" vertex="1" parent="39">
                    <mxGeometry y="26" width="170" height="54" as="geometry"/>
                </mxCell>
                <mxCell id="41" value="" style="endArrow=classic;startArrow=classic;html=1;rounded=0;entryX=-0.001;entryY=0.182;entryDx=0;entryDy=0;entryPerimeter=0;exitX=-0.002;exitY=0.383;exitDx=0;exitDy=0;exitPerimeter=0;labelBackgroundColor=none;strokeColor=#E07A5F;fontColor=default;" edge="1" parent="1" source="42">
                    <mxGeometry width="50" height="50" relative="1" as="geometry">
                        <mxPoint x="272" y="854" as="sourcePoint"/>
                        <mxPoint x="480.81999999999994" y="653.6680000000001" as="targetPoint"/>
                        <Array as="points">
                            <mxPoint x="222" y="914"/>
                            <mxPoint x="222" y="654"/>
                        </Array>
                    </mxGeometry>
                </mxCell>
                <mxCell id="42" value="" style="rounded=0;whiteSpace=wrap;html=1;fillColor=none;labelBackgroundColor=none;strokeColor=#E07A5F;fontColor=#393C56;" vertex="1" parent="1">
                    <mxGeometry x="272" y="844" width="770" height="180" as="geometry"/>
                </mxCell>
                <mxCell id="43" value="" style="endArrow=classic;startArrow=classic;html=1;rounded=0;entryX=-0.001;entryY=0.182;entryDx=0;entryDy=0;entryPerimeter=0;exitX=-0.005;exitY=0.395;exitDx=0;exitDy=0;exitPerimeter=0;labelBackgroundColor=none;strokeColor=#E07A5F;fontColor=default;" edge="1" parent="1" source="3">
                    <mxGeometry width="50" height="50" relative="1" as="geometry">
                        <mxPoint x="262" y="1023" as="sourcePoint"/>
                        <mxPoint x="472.81999999999994" y="763.6680000000001" as="targetPoint"/>
                        <Array as="points">
                            <mxPoint x="184" y="1096"/>
                            <mxPoint x="184" y="764"/>
                        </Array>
                    </mxGeometry>
                </mxCell>
                <mxCell id="44" value="Element Display" style="rounded=1;whiteSpace=wrap;html=1;" vertex="1" parent="1">
                    <mxGeometry x="1284" y="650" width="120" height="60" as="geometry"/>
                </mxCell>
                <mxCell id="45" value="Element knob" style="ellipse;whiteSpace=wrap;html=1;" vertex="1" parent="1">
                    <mxGeometry x="1315" y="720" width="58" height="60" as="geometry"/>
                </mxCell>
                <mxCell id="46" value="Block" style="text;html=1;align=center;verticalAlign=middle;whiteSpace=wrap;rounded=0;" vertex="1" parent="1">
                    <mxGeometry x="1373" y="610" width="60" height="30" as="geometry"/>
                </mxCell>
                <mxCell id="47" value="Element Fader" style="rounded=0;whiteSpace=wrap;html=1;" vertex="1" parent="1">
                    <mxGeometry x="1319" y="955" width="50" height="240" as="geometry"/>
                </mxCell>
                <mxCell id="48" value="Element Button 1" style="rounded=1;whiteSpace=wrap;html=1;" vertex="1" parent="1">
                    <mxGeometry x="1309" y="1215" width="70" height="60" as="geometry"/>
                </mxCell>
                <mxCell id="49" value="Element Button 2" style="rounded=1;whiteSpace=wrap;html=1;" vertex="1" parent="1">
                    <mxGeometry x="1309" y="1285" width="70" height="60" as="geometry"/>
                </mxCell>
                <mxCell id="50" value="Element Button 1" style="rounded=1;whiteSpace=wrap;html=1;" vertex="1" parent="1">
                    <mxGeometry x="1309" y="800" width="70" height="60" as="geometry"/>
                </mxCell>
                <mxCell id="51" value="Element Button 2" style="rounded=1;whiteSpace=wrap;html=1;" vertex="1" parent="1">
                    <mxGeometry x="1309" y="870" width="70" height="60" as="geometry"/>
                </mxCell>
            </root>
        </mxGraphModel>
    </diagram>
</mxfile>